<svg width="207" height="44" viewBox="0 0 207 44" fill="none" xmlns="http://www.w3.org/2000/svg">
<g clip-path="url(#clip0_30_65)">
<rect width="207" height="44" fill="white"/>
<path d="M20 15.9139C20 22.9181 14.1625 24.5761 5.84874 24.3279C6.09524 27.6101 7.69748 30.4523 11.9328 30.4523C14.1326 30.436 16.2735 29.7347 18.0616 28.4447L19.7647 32.5051C17.2578 34.1817 14.3035 35.051 11.2941 34.9977C3.07003 34.9977 0 29.5613 0 22.6587C0 15.068 4.2353 9 12.0112 9C16.93 9 19.9888 11.2558 19.9888 15.9026M11.7647 13.3085C7.82073 13.3085 6.21848 16.9854 5.82633 20.166C6.55462 20.166 7.13725 20.166 7.7759 20.166C12.056 20.166 14.7787 19.0382 14.7787 16.1508C14.7787 14.0416 13.5574 13.2634 11.7647 13.2634" fill="#FF4612"/>
<path d="M43.5688 29.5288C43.5688 30.4716 43.7947 30.7967 44.6445 30.8509L46 30.9376V34.3297H39.0398L38.8999 31.8371H38.7601C38.0336 32.8665 37.0614 33.6949 35.9334 34.2461C34.8053 34.7972 33.5576 35.0533 32.3054 34.9908C25.442 34.9366 23 30.0598 23 23.5032C23 15.2236 27.1094 10 35.3283 10C38.1454 10.0887 40.929 10.6415 43.5688 11.6364V29.5288ZM38.0608 14.8876C36.9425 14.4552 35.7514 14.2454 34.5538 14.2699C29.928 14.2699 28.5725 18.6048 28.5725 23.3515C28.5725 27.0687 29.5084 30.7425 33.3812 30.7425C33.9763 30.7937 34.5754 30.7195 35.1405 30.5246C35.7055 30.3298 36.2241 30.0186 36.6633 29.6109C37.1024 29.2031 37.4525 28.7078 37.6913 28.1563C37.93 27.6048 38.0522 27.0093 38.05 26.4076L38.0608 14.8876Z" fill="#FF4612"/>
<path d="M68.8078 10V13.3784L55.7835 30.0951H64.9977C66.0266 30.0951 66.5466 28.7678 66.5466 28.7678L69 26.947L68.0503 34H49V30.5229L62.013 13.9488H55.433C54.3024 13.9488 54.1102 14.234 54.1102 15.1883V17.3821L49.4409 17.042V10H68.8078Z" fill="#FF4612"/>
<path d="M118.512 29.2517C118.512 30.361 118.614 30.5496 119.537 30.6938L121 30.838V34.3101H113.773L113.627 31.7587H113.435C112.684 32.8215 111.668 33.6765 110.486 34.2417C109.303 34.8069 107.993 35.0634 106.681 34.9867C99.2514 34.9867 97 29.4403 97 23.0398C97 15.1417 101.053 9.46217 108.482 9.46217C109.942 9.45772 111.394 9.68239 112.782 10.1277V5.12488C112.782 4.11543 112.49 3.87139 111.555 3.72719L110.036 3.58298V0H118.49L118.512 29.2517ZM112.794 26.2678V14.6092C111.588 14.0421 110.269 13.7466 108.932 13.744C104.43 13.744 102.921 17.693 102.921 22.4629C102.921 26.7559 103.901 30.6051 107.953 30.6051C111.026 30.6051 112.794 28.7748 112.794 26.2678Z" fill="#FF4612"/>
<path d="M132.444 30.241L135 30.4377V34H124.1V30.5798L125.644 30.4377C126.556 30.2957 126.756 30.0553 126.756 28.8751V15.2052C126.756 14.1125 126.467 13.9267 125.544 13.7847L124 13.6863V10.0803H132.444V30.241ZM129.311 0.0710275C129.759 0.0348513 130.209 0.0901218 130.634 0.233362C131.059 0.376601 131.449 0.604711 131.779 0.903356C132.11 1.202 132.375 1.56472 132.556 1.96871C132.737 2.3727 132.832 2.80923 132.833 3.25084C132.834 3.70135 132.741 4.14725 132.559 4.5607C132.377 4.97416 132.111 5.34631 131.776 5.65391C131.441 5.96152 131.046 6.19799 130.614 6.34855C130.182 6.49911 129.724 6.56054 129.267 6.529C128.797 6.58906 128.319 6.54984 127.866 6.41394C127.412 6.27805 126.993 6.04862 126.637 5.74097C126.281 5.43331 125.996 5.05449 125.8 4.6298C125.605 4.20512 125.504 3.74432 125.504 3.27816C125.504 2.81201 125.605 2.35121 125.8 1.92652C125.996 1.50183 126.281 1.12302 126.637 0.815362C126.993 0.507703 127.412 0.278273 127.866 0.142382C128.319 0.00649156 128.797 -0.0327375 129.267 0.0273177" fill="#FF4612"/>
<path d="M140.718 14.8571C140.718 13.7442 140.433 13.5549 139.523 13.4103L138 13.3101V9.63733H145.924V12.9762C146.658 11.6969 147.726 10.6492 149.011 9.94968C150.296 9.25019 151.746 8.92632 153.202 9.01408C158.002 9.01408 160.578 11.6184 160.578 17.2722V30.2271L163 30.3718V34H152.5V30.561L153.925 30.4163C154.736 30.2716 155.021 30.0267 155.021 29.0139V18.63C155.021 15.6807 154.363 13.7442 151.262 13.7442C150.598 13.7377 149.94 13.8679 149.328 14.1268C148.715 14.3858 148.161 14.7681 147.698 15.2508C147.235 15.7334 146.873 16.3064 146.634 16.935C146.395 17.5636 146.284 18.2349 146.308 18.9083V30.2271L148.587 30.3718V34H138.066V30.5164L139.545 30.3718C140.455 30.3718 140.641 29.9822 140.641 28.9694L140.718 14.8571Z" fill="#FF4612"/>
<path d="M184.989 15.9139C184.989 22.9181 179.444 24.5761 171.546 24.328C171.78 27.6101 173.302 30.4524 177.325 30.4524C179.415 30.4361 181.449 29.7348 183.148 28.4447L184.766 32.5051C182.384 34.1811 179.578 35.0504 176.719 34.9977C168.906 34.9977 166 29.5613 166 22.6587C166 15.068 170.024 9 177.421 9C182.083 9 185 11.2558 185 15.9027M177.187 13.3085C173.451 13.3085 171.865 16.9854 171.546 20.1661C172.238 20.1661 172.791 20.1661 173.398 20.1661C177.464 20.1661 180.05 19.0382 180.05 16.1508C180.05 14.0416 178.89 13.2634 177.187 13.2634" fill="#FF4612"/>
<path d="M196.319 18.7723V30.1708L200.132 30.3712V34H188.11V30.5159L189.538 30.3712C190.637 30.2265 190.736 29.8814 190.736 28.7794V14.7538C190.736 13.7854 190.451 13.5517 189.637 13.3958L188 13.3068V9.63341H195.824V13.3068C196.381 11.971 197.33 10.8416 198.544 10.0727C199.757 9.30371 201.175 8.93264 202.604 9.01005C204.121 8.9594 205.628 9.27614 207 9.93396V18.0042L202.231 18.3381V15.2882C202.231 14.4644 202.231 14.175 201.802 14.0303C201.383 13.848 200.928 13.7643 200.473 13.7854C197.846 13.7854 196.275 15.9115 196.275 18.7611" fill="#FF4612"/>
<path d="M85.3633 10.0108V13.6346L87.4431 13.8299L82.9351 27.4896H82.7936L78.7756 15.0017C78.536 14.1988 78.7756 13.7757 79.5378 13.678L80.7138 13.5804V10H70.598V13.4827L72.6778 13.7648L80.3 34.3791L79.4616 36.3537C78.5142 38.6647 77.2838 39.1312 75.204 39.3808C73.7316 39.482 72.2629 39.1379 70.99 38.3935C67.9847 36.7986 67.2116 31.7969 70.5218 30.5709C71.6107 30.1803 72.7867 31.786 74.1696 29.9524C74.3364 29.6908 74.447 29.3975 74.4945 29.0912C74.5421 28.7848 74.5254 28.472 74.4456 28.1723C74.3658 27.8727 74.2246 27.5928 74.031 27.3502C73.8373 27.1075 73.5953 26.9075 73.3202 26.7627C69.7922 24.2781 64.7289 27.3268 64.1518 31.287C63.5203 35.6268 64.8378 39.9667 68.5074 42.1366C70.608 43.4352 73.0493 44.0811 75.5198 43.9919C80.1693 43.7098 83.142 40.1294 85.396 33.956L92.3976 14.9691C92.7787 13.9818 93.0182 13.7431 93.9111 13.6021L95 13.5153V10.0108H85.3633Z" fill="#FF4612"/>
</g>
<defs>
<clipPath id="clip0_30_65">
<rect width="207" height="44" fill="white"/>
</clipPath>
</defs>
</svg>
